<svg width="71" height="71" viewBox="0 0 71 71" fill="none" xmlns="http://www.w3.org/2000/svg">
<path d="M59.1667 52.0075C62.2766 50.6455 64.8233 48.255 66.3793 45.2375C67.9353 42.2199 68.4059 38.7589 67.7121 35.4355C67.0183 32.112 65.2022 29.1284 62.5689 26.9854C59.9355 24.8425 56.6451 23.6707 53.25 23.6667H49.5225C48.5848 20.0354 46.7974 16.6789 44.3079 13.874C41.8183 11.0691 38.6978 8.89594 35.2035 7.53376C31.7092 6.17158 27.9412 5.65934 24.2101 6.03927C20.4789 6.4192 16.8915 7.68042 13.7435 9.71897C10.5955 11.7575 7.97704 14.515 6.10394 17.7642C4.23085 21.0134 3.15675 24.6612 2.9702 28.407C2.78365 32.1527 3.48997 35.8892 5.03095 39.3084C6.57194 42.7276 8.90345 45.7317 11.8333 48.0729M23.6667 47.3333H23.6963M23.6667 59.1667H23.6963M35.5 53.25H35.5296M35.5 65.0833H35.5296M47.3333 47.3333H47.3629M47.3333 59.1667H47.3629" stroke="#0CC5FD" stroke-width="4" stroke-linecap="round" stroke-linejoin="round"/>
</svg>
