<svg width="71" height="71" viewBox="0 0 71 71" fill="none" xmlns="http://www.w3.org/2000/svg">
<path d="M53.25 29.5833H49.5225C48.4157 25.2967 46.1287 21.4065 42.9214 18.3547C39.7141 15.3029 35.7151 13.2119 31.3788 12.3193C27.0425 11.4267 22.5428 11.7684 18.3909 13.3054C14.2391 14.8424 10.6016 17.5131 7.89181 21.0142C5.18201 24.5152 3.50856 28.7061 3.0616 33.1107C2.61465 37.5153 3.41212 41.957 5.36339 45.931C7.31466 49.905 10.3415 53.252 14.1 55.5917C17.8584 57.9314 22.1978 59.17 26.625 59.1667H53.25C57.173 59.1667 60.9353 57.6083 63.7093 54.8343C66.4833 52.0603 68.0417 48.298 68.0417 44.375C68.0417 40.452 66.4833 36.6897 63.7093 33.9157C60.9353 31.1417 57.173 29.5833 53.25 29.5833Z" stroke="#CFCB59" stroke-width="4" stroke-linecap="round" stroke-linejoin="round"/>
</svg>
