<svg width="71" height="71" viewBox="0 0 71 71" fill="none" xmlns="http://www.w3.org/2000/svg">
<g clip-path="url(#clip0_32_60)">
<path d="M47.3333 38.4583V62.125M23.6667 38.4583V62.125M35.5 44.375V68.0417M59.1667 49.0492C62.2766 47.6871 64.8233 45.2967 66.3793 42.2791C67.9353 39.2616 68.4059 35.8006 67.7121 32.4771C67.0183 29.1537 65.2022 26.17 62.5689 24.0271C59.9355 21.8841 56.6451 20.7123 53.25 20.7083H49.5225C48.5848 17.077 46.7974 13.7206 44.3079 10.9157C41.8183 8.11072 38.6978 5.9376 35.2035 4.57542C31.7092 3.21324 27.9412 2.70101 24.2101 3.08094C20.4789 3.46087 16.8915 4.72208 13.7435 6.76063C10.5955 8.79918 7.97704 11.5567 6.10394 14.8059C4.23085 18.055 3.15676 21.7028 2.9702 25.4486C2.78365 29.1944 3.48997 32.9309 5.03096 36.3501C6.57194 39.7693 8.90346 42.7733 11.8333 45.1146" stroke="#492FEF" stroke-width="4" stroke-linecap="round" stroke-linejoin="round"/>
</g>
<defs>
<clipPath id="clip0_32_60">
<rect width="71" height="71" fill="white"/>
</clipPath>
</defs>
</svg>
