<svg width="71" height="71" viewBox="0 0 71 71" fill="none" xmlns="http://www.w3.org/2000/svg">
<g clip-path="url(#clip0_32_105)">
<path d="M56.2083 49.9958C59.8032 49.2659 62.9985 47.2262 65.1741 44.2729C67.3497 41.3195 68.3503 37.6631 67.9816 34.0134C67.613 30.3638 65.9014 26.9814 63.1791 24.5227C60.4569 22.0641 56.9182 20.7046 53.25 20.7083H49.5225C48.5424 16.9137 46.6353 13.4219 43.9724 10.5464C41.3095 7.6709 37.9741 5.5017 34.2658 4.23356C30.5576 2.96542 26.5924 2.63804 22.7263 3.28081C18.8602 3.92359 15.2143 5.51639 12.1159 7.91623C9.01742 10.3161 6.56343 13.4478 4.97424 17.0303C3.38505 20.6127 2.71039 24.5338 3.01085 28.4414C3.31131 32.349 4.57747 36.1208 6.69566 39.4182C8.81385 42.7156 11.7178 45.4354 15.1467 47.3333M38.4583 32.5417L26.625 50.2917H44.375L32.5417 68.0417" stroke="#2510C4" stroke-width="4" stroke-linecap="round" stroke-linejoin="round"/>
</g>
<defs>
<clipPath id="clip0_32_105">
<rect width="71" height="71" fill="white"/>
</clipPath>
</defs>
</svg>
