<?xml version="1.0" encoding="UTF-8"?>
<svg id="Calque_1" xmlns="http://www.w3.org/2000/svg" xmlns:xlink="http://www.w3.org/1999/xlink" version="1.1" viewBox="0 0 64 64">
  <!-- Generator: Adobe Illustrator 29.1.0, SVG Export Plug-In . SVG Version: 2.1.0 Build 142)  -->
  <defs>
    <style>
      .st0 {
        stroke-miterlimit: 10;
        stroke-width: 3px;
      }

      .st0, .st1, .st2 {
        stroke-linecap: round;
      }

      .st0, .st2 {
        fill: none;
        stroke: #ef4444;
      }

      .st1 {
        fill: url(#Dégradé_sans_nom);
        stroke: #706f6f;
      }

      .st1, .st2 {
        stroke-linejoin: round;
      }

      .st2 {
        stroke-width: 2px;
      }

      .st3 {
        fill: #ef4444;
      }
    </style>
    <linearGradient id="Dégradé_sans_nom" data-name="Dégradé sans nom" x1="23.7" y1="46.8" x2="39.2" y2="20.1" gradientTransform="translate(0 66) scale(1 -1)" gradientUnits="userSpaceOnUse">
      <stop offset="0" stop-color="#515a69" stop-opacity="0"/>
      <stop offset=".5" stop-color="#6b7280" stop-opacity="0"/>
      <stop offset="1" stop-color="#384354" stop-opacity=".1"/>
    </linearGradient>
  </defs>
  <circle class="st3" cx="32" cy="42" r="4.5"/>
  <path class="st0" d="M32,19v23">
    <animateTransform accumulate="none" additive="replace" attributeName="transform" calcMode="linear" dur="1s" fill="remove" repeatCount="indefinite" restart="always" type="translate" values="0 0; 0 1; 0 0"/>
  </path>
  <path class="st1" d="M32.5,29h3.5M39,41.9c0,3.9-3.1,7-7,7s-7-3.1-7-7c0-2.3,1.1-4.5,3-5.8v-17c0-2.2,1.8-4,4-4s4,1.8,4,4v17c1.9,1.3,3,3.5,3,5.8ZM32.5,25h3.5M32.5,21h3.5"/>
  <polyline class="st2" points="44 38 44 26 41 29.5 44 26 47 29.5">
    <animateTransform accumulate="none" additive="replace" attributeName="transform" begin="0s" calcMode="linear" dur="1.5s" fill="remove" keyTimes="0.0; 0.5; 0.9; 1.0" repeatCount="indefinite" restart="always" type="translate" values="0 0; 0 0; 0 -6; 0 -6"/>
    <animate accumulate="none" additive="replace" attributeName="opacity" calcMode="linear" dur="1.5s" fill="remove" keyTimes="0.0; 0.3; 0.8; 0.9; 1.0" repeatCount="indefinite" restart="always" values="0; 1; 1; 0; 0"/>
  </polyline>
  <metadata>
    <sfw xmlns="http://ns.adobe.com/SaveForWeb/1.0/">
      <slices/>
      <sliceSourceBounds x="24.5" y="14.6" width="23.5" height="34.83" bottomLeftOrigin="true"/>
    </sfw>
  </metadata>
</svg>